<svg width="28" height="26" viewBox="0 0 28 26" fill="none" xmlns="http://www.w3.org/2000/svg">
<path d="M27.3089 9.77392C27.0468 8.96103 26.3689 8.42429 25.4914 8.33664L19.1294 7.76221C18.6978 7.72404 18.3509 7.47287 18.177 7.07185L15.6497 1.25679C15.3019 0.481133 14.5592 0 13.7126 0C12.8484 0 12.1047 0.484431 11.7732 1.26197L9.2477 7.07279C9.07429 7.47334 8.72699 7.72451 8.29441 7.76268L1.91481 8.33759C1.05918 8.42477 0.38315 8.95821 0.102545 9.77439C-0.156146 10.5764 0.0825356 11.4275 0.729023 11.9982L5.53552 16.1644C5.86186 16.449 5.99383 16.8514 5.89854 17.2675L4.48075 23.4379C4.28828 24.2691 4.60223 25.0966 5.30113 25.5971C5.98144 26.0848 6.90377 26.1249 7.62362 25.7012L13.1262 22.4648C13.4968 22.2391 13.9203 22.2353 14.3043 22.469L19.8002 25.7008C20.1322 25.8963 20.5067 26 20.8835 26C21.328 26 21.7535 25.8596 22.1093 25.5976C22.8082 25.0966 23.1227 24.2691 22.9307 23.4398L21.5262 17.2675C21.4304 16.8514 21.5629 16.4495 21.8883 16.1653L26.6929 11.9868C27.3498 11.4247 27.5847 10.5741 27.3089 9.77392Z" fill="#FF7E36"/>
</svg>
