<svg width="62" height="44" viewBox="0 0 62 44" fill="none" xmlns="http://www.w3.org/2000/svg">
<path d="M10.752 40.7773C12.959 40.7773 14.4238 40.6016 15.1465 40.25C15.8691 39.8789 16.3379 39.4883 16.5527 39.0781C16.7676 38.668 16.875 38.1699 16.875 37.584V3.45312H10.8691C7.64648 3.45312 5.80078 5.16211 5.33203 8.58008L4.48242 14.5273L0.234375 14.498L1.52344 0.0546875H38.8184L40.1074 14.498L35.8594 14.5273L35.0098 8.58008C34.7949 6.99805 34.375 5.875 33.75 5.21094C32.6172 4.03906 31.1914 3.45312 29.4727 3.45312H23.4668V37.584C23.4668 38.8145 23.8672 39.6543 24.668 40.1035C25.4883 40.5527 27.1289 40.7773 29.5898 40.7773V44H10.752V40.7773ZM29.2805 40.7773C31.3508 40.7773 32.6398 40.6016 33.1477 40.25C33.6555 39.8789 33.9582 39.4883 34.0559 39.0781C34.1535 38.668 34.2023 38.1699 34.2023 37.584V6.4707C34.2023 5.25977 33.841 4.42969 33.1184 3.98047C32.3957 3.51172 31.1164 3.27734 29.2805 3.27734V0.0546875H60.5695L61.7121 10.6895L57.4641 10.7188L56.673 7.4082C56.2824 5.82617 55.882 4.83008 55.4719 4.41992C54.7492 3.69727 53.5285 3.33594 51.8098 3.33594H40.7941V20.3867H46.1848C48.3918 20.3867 49.7395 20.2402 50.2277 19.9473C50.7355 19.6543 51.0773 19.2344 51.2531 18.6875C51.4484 18.1406 51.5461 17.3496 51.5461 16.3145H55.3547V27.6523H51.5461C51.5461 25.8359 51.1848 24.7129 50.4621 24.2832C49.759 23.834 48.3332 23.6094 46.1848 23.6094H40.7941V36.1191C40.7941 37.1152 40.8625 37.916 40.9992 38.5215C41.1555 39.127 41.6437 39.6543 42.4641 40.1035C43.3039 40.5527 45.8137 40.7773 49.9934 40.7773V44H29.2805V40.7773Z" fill="#393939"/>
</svg>
