<svg width="587" height="64" viewBox="0 0 587 64" fill="none" xmlns="http://www.w3.org/2000/svg">
<path d="M10.752 45.7773C12.959 45.7773 14.4238 45.6016 15.1465 45.25C15.8691 44.8789 16.3379 44.4883 16.5527 44.0781C16.7676 43.668 16.875 43.1699 16.875 42.584V8.45312H10.8691C7.64648 8.45312 5.80078 10.1621 5.33203 13.5801L4.48242 19.5273L0.234375 19.498L1.52344 5.05469H38.8184L40.1074 19.498L35.8594 19.5273L35.0098 13.5801C34.7949 11.998 34.375 10.875 33.75 10.2109C32.6172 9.03906 31.1914 8.45312 29.4727 8.45312H23.4668V42.584C23.4668 43.8145 23.8672 44.6543 24.668 45.1035C25.4883 45.5527 27.1289 45.7773 29.5898 45.7773V49H10.752V45.7773ZM29.2805 45.7773C31.3508 45.7773 32.6398 45.6016 33.1477 45.25C33.6555 44.8789 33.9582 44.4883 34.0559 44.0781C34.1535 43.668 34.2023 43.1699 34.2023 42.584V11.4707C34.2023 10.2598 33.841 9.42969 33.1184 8.98047C32.3957 8.51172 31.1164 8.27734 29.2805 8.27734V5.05469H60.5695L61.7121 15.6895L57.4641 15.7188L56.673 12.4082C56.2824 10.8262 55.882 9.83008 55.4719 9.41992C54.7492 8.69727 53.5285 8.33594 51.8098 8.33594H40.7941V25.3867H46.1848C48.3918 25.3867 49.7395 25.2402 50.2277 24.9473C50.7355 24.6543 51.0773 24.2344 51.2531 23.6875C51.4484 23.1406 51.5461 22.3496 51.5461 21.3145H55.3547V32.6523H51.5461C51.5461 30.8359 51.1848 29.7129 50.4621 29.2832C49.759 28.834 48.3332 28.6094 46.1848 28.6094H40.7941V41.1191C40.7941 42.1152 40.8625 42.916 40.9992 43.5215C41.1555 44.127 41.6437 44.6543 42.4641 45.1035C43.3039 45.5527 45.8137 45.7773 49.9934 45.7773V49H29.2805V45.7773ZM98.8148 0.572266H103.59V53.3359H98.8148V0.572266ZM162.125 45.7773C164.332 45.7773 165.797 45.6016 166.52 45.25C167.243 44.8789 167.711 44.4883 167.926 44.0781C168.141 43.668 168.248 43.1699 168.248 42.584V8.45312H162.243C159.02 8.45312 157.174 10.1621 156.705 13.5801L155.856 19.5273L151.608 19.498L152.897 5.05469H190.192L191.481 19.498L187.233 19.5273L186.383 13.5801C186.168 11.998 185.748 10.875 185.123 10.2109C183.991 9.03906 182.565 8.45312 180.846 8.45312H174.84V42.584C174.84 43.8145 175.241 44.6543 176.041 45.1035C176.862 45.5527 178.502 45.7773 180.963 45.7773V49H162.125V45.7773ZM219.723 41.998C219.723 44.3223 220.182 45.4844 221.1 45.4844C221.979 45.4844 222.623 45.1914 223.034 44.6055C223.444 44 223.649 42.916 223.649 41.3535H226.725C226.745 41.6074 226.754 42.0078 226.754 42.5547C226.754 44.3125 226.315 45.8359 225.436 47.125C224.362 48.7656 222.653 49.5859 220.309 49.5859C218.786 49.5859 217.487 49.1562 216.413 48.2969C215.338 47.4375 214.596 46.3047 214.186 44.8984C211.354 48.0234 207.77 49.5859 203.434 49.5859C201.051 49.5859 198.971 48.8926 197.194 47.5059C195.436 46.0996 194.557 44.1465 194.557 41.6465C194.557 37.3105 197.76 34.1074 204.166 32.0371C208.229 30.748 210.661 29.8594 211.461 29.3711C212.262 28.8633 212.78 28.3555 213.014 27.8477C213.268 27.3203 213.395 26.7344 213.395 26.0898C213.395 24.9375 212.829 23.9805 211.696 23.2188C210.563 22.4375 209.088 22.0469 207.272 22.0469C205.455 22.0469 203.854 22.5352 202.467 23.5117C203.444 24.2344 203.932 25.1621 203.932 26.2949C203.932 27.4277 203.551 28.3359 202.789 29.0195C202.047 29.7031 201.139 30.0449 200.065 30.0449C199.01 30.0449 198.131 29.7227 197.428 29.0781C196.745 28.4336 196.403 27.5352 196.403 26.3828C196.403 24.0977 197.555 22.252 199.86 20.8457C202.164 19.4199 204.967 18.707 208.268 18.707C214.166 18.707 217.77 20.6211 219.079 24.4492C219.508 25.7188 219.723 27.1836 219.723 28.8438V41.998ZM206.803 34.7031C205.084 35.4453 203.795 36.4023 202.936 37.5742C202.077 38.7266 201.647 39.9863 201.647 41.3535C201.647 42.7207 202.018 43.7559 202.76 44.459C203.502 45.1621 204.43 45.5137 205.543 45.5137C207.809 45.5137 209.684 44.7227 211.168 43.1406C212.653 41.5391 213.395 39.3125 213.395 36.4609V31.9492C212.145 32.5938 210.817 33.1797 209.411 33.707C208.024 34.2344 207.155 34.5664 206.803 34.7031ZM244.772 23.1895C243.776 22.1934 242.145 21.6953 239.879 21.6953C237.614 21.6953 236.08 22.5156 235.28 24.1562C235.065 24.625 234.957 25.1621 234.957 25.7676C234.957 26.3535 235.192 26.9297 235.661 27.4961C236.129 28.043 236.735 28.5703 237.477 29.0781C238.219 29.5664 239.049 30.0449 239.967 30.5137C240.905 30.9824 241.871 31.4902 242.868 32.0371C243.864 32.584 244.918 33.1602 246.032 33.7656C250.114 35.9922 252.155 38.4629 252.155 41.1777C252.155 43.873 251.1 45.9531 248.991 47.418C246.881 48.8633 244.079 49.5859 240.582 49.5859C237.106 49.5859 234.235 48.9609 231.969 47.7109C229.704 46.4609 228.571 44.8496 228.571 42.877C228.571 41.8027 228.922 40.8945 229.625 40.1523C230.348 39.4102 231.256 39.0391 232.35 39.0391C233.463 39.0391 234.381 39.3906 235.104 40.0938C235.827 40.7773 236.188 41.5977 236.188 42.5547C236.188 43.5117 235.856 44.3223 235.192 44.9863C236.754 45.8848 238.688 46.334 240.993 46.334C243.317 46.334 244.948 45.7969 245.885 44.7227C246.276 44.293 246.471 43.7363 246.471 43.0527C246.471 41.4316 244.674 39.7422 241.08 37.9844C238.58 36.7539 236.705 35.7871 235.455 35.084C231.452 32.8184 229.45 30.084 229.45 26.8809C229.45 24.4199 230.465 22.4473 232.496 20.9629C234.547 19.4785 237.155 18.7363 240.319 18.7363C243.483 18.7363 246.139 19.332 248.288 20.5234C250.455 21.6953 251.539 23.2188 251.539 25.0938C251.539 26.1875 251.276 26.998 250.748 27.5254C249.83 28.4434 248.952 28.9023 248.112 28.9023C246.745 28.9023 245.709 28.5605 245.006 27.877C244.323 27.1738 243.981 26.373 243.981 25.4746C243.981 24.5762 244.245 23.8145 244.772 23.1895ZM269.235 49.5859C263.082 49.5859 260.006 46.168 260.006 39.332V24.6836C260.006 23.9219 259.909 23.4238 259.713 23.1895C259.538 22.9355 259.147 22.8086 258.541 22.8086H256.139V19.293H257.223C258.707 19.293 259.791 18.8242 260.475 17.8867C261.178 16.9492 261.559 15.4062 261.618 13.2578L261.647 10.6504H266.334V19.293H275.329V22.8086H266.334V39.2441C266.334 42.877 267.174 45.0449 268.854 45.748C269.323 45.9434 269.791 46.041 270.26 46.041C272.311 46.041 273.649 44.3516 274.274 40.9727H277.672C277.477 44.9766 275.807 47.6328 272.663 48.9414C271.647 49.3711 270.504 49.5859 269.235 49.5859ZM287.575 60.3086C288.082 60.4062 288.502 60.4453 288.834 60.4258C289.186 60.4258 289.596 60.2598 290.065 59.9277C290.553 59.6152 291.022 59.1953 291.471 58.668C292.35 57.6719 293.102 56.4609 293.727 55.0352C294.371 53.6094 294.694 52.4863 294.694 51.666C294.694 50.8457 294.586 50.2207 294.371 49.791C294.176 49.3613 293.942 48.9902 293.668 48.6777C293.395 48.3457 293.102 48.0234 292.789 47.7109C292.477 47.3984 292.223 46.9785 292.028 46.4512L283.532 25.6504C283.121 24.4395 282.692 23.6191 282.243 23.1895C281.793 22.7402 280.807 22.5156 279.284 22.5156V19.293H295.045V22.5156C292.799 22.5156 291.442 22.7012 290.973 23.0723C290.504 23.4238 290.26 23.7949 290.241 24.1855C290.221 24.5762 290.309 25.0645 290.504 25.6504L297.799 45.5723L305.211 25.6504C305.661 24.5176 305.524 23.7168 304.801 23.248C304.079 22.7598 302.545 22.5156 300.202 22.5156V19.293H313.854V22.5156C312.565 22.5156 311.588 22.7793 310.924 23.3066C310.28 23.8145 309.752 24.5957 309.342 25.6504L301.491 46.5977C300.807 48.1406 300.163 49.6445 299.557 51.1094C298.952 52.5742 298.336 53.9512 297.711 55.2402C296.325 58.1113 294.821 60.2793 293.2 61.7441C291.579 63.209 289.684 63.9414 287.516 63.9414C285.368 63.9414 283.707 63.4043 282.536 62.3301C281.364 61.2754 280.778 60.0449 280.778 58.6387C280.778 57.252 281.168 56.1484 281.95 55.3281C282.731 54.5078 283.707 54.0977 284.879 54.0977C286.559 54.0977 287.721 54.8398 288.366 56.3242C288.561 56.7734 288.659 57.252 288.659 57.7598C288.659 58.7363 288.297 59.5859 287.575 60.3086ZM335.065 45.7773C337.135 45.7773 338.424 45.6016 338.932 45.25C339.44 44.8789 339.743 44.4883 339.84 44.0781C339.938 43.668 339.987 43.1699 339.987 42.584V11.4707C339.987 10.2598 339.625 9.42969 338.903 8.98047C338.18 8.51172 336.901 8.27734 335.065 8.27734V5.05469H366.354L367.496 15.6895L363.248 15.7188L362.457 12.4082C362.067 10.8262 361.666 9.83008 361.256 9.41992C360.534 8.69727 359.313 8.33594 357.594 8.33594H346.579V25.3867H351.969C354.176 25.3867 355.524 25.2402 356.012 24.9473C356.52 24.6543 356.862 24.2344 357.038 23.6875C357.233 23.1406 357.33 22.3496 357.33 21.3145H361.139V32.6523H357.33C357.33 30.8359 356.969 29.7129 356.246 29.2832C355.543 28.834 354.118 28.6094 351.969 28.6094H346.579V41.1191C346.579 42.1152 346.647 42.916 346.784 43.5215C346.94 44.127 347.428 44.6543 348.248 45.1035C349.088 45.5527 351.598 45.7773 355.778 45.7773V49H335.065V45.7773ZM372.858 34C372.858 31.6562 373.219 29.498 373.942 27.5254C374.684 25.5332 375.709 23.8828 377.018 22.5742C379.596 19.9961 383.024 18.707 387.301 18.707C391.618 18.707 395.094 20.0059 397.731 22.6035C400.387 25.1816 401.715 28.8535 401.715 33.6191C401.715 38.3652 400.495 42.2129 398.053 45.1621C395.612 48.1113 392.028 49.5859 387.301 49.5859C382.575 49.5859 378.981 48.1602 376.52 45.3086C374.079 42.4375 372.858 38.668 372.858 34ZM387.301 46.0703C389.567 46.0703 391.403 45.0352 392.809 42.9648C394.235 40.8945 394.948 37.9844 394.948 34.2344C394.948 28.1992 393.424 24.4297 390.377 22.9258C389.44 22.457 388.414 22.2227 387.301 22.2227C383.688 22.2227 381.334 24.4102 380.241 28.7852C379.85 30.2891 379.655 32.0469 379.655 34.0586C379.655 37.9258 380.358 40.8945 381.764 42.9648C383.19 45.0352 385.036 46.0703 387.301 46.0703ZM407.018 34C407.018 31.6562 407.379 29.498 408.102 27.5254C408.844 25.5332 409.87 23.8828 411.178 22.5742C413.756 19.9961 417.184 18.707 421.461 18.707C425.778 18.707 429.254 20.0059 431.891 22.6035C434.547 25.1816 435.875 28.8535 435.875 33.6191C435.875 38.3652 434.655 42.2129 432.213 45.1621C429.772 48.1113 426.188 49.5859 421.461 49.5859C416.735 49.5859 413.141 48.1602 410.68 45.3086C408.239 42.4375 407.018 38.668 407.018 34ZM421.461 46.0703C423.727 46.0703 425.563 45.0352 426.969 42.9648C428.395 40.8945 429.108 37.9844 429.108 34.2344C429.108 28.1992 427.584 24.4297 424.538 22.9258C423.6 22.457 422.575 22.2227 421.461 22.2227C417.848 22.2227 415.495 24.4102 414.401 28.7852C414.01 30.2891 413.815 32.0469 413.815 34.0586C413.815 37.9258 414.518 40.8945 415.924 42.9648C417.35 45.0352 419.196 46.0703 421.461 46.0703ZM463.649 44.3711C461.325 47.8477 458.161 49.5859 454.157 49.5859C450.153 49.5859 446.969 48.2676 444.606 45.6309C442.262 42.9941 441.09 39.4492 441.09 34.9961C441.09 29.5273 442.291 25.4453 444.694 22.75C447.116 20.0547 450.426 18.707 454.625 18.707C457.809 18.707 460.534 19.8008 462.799 21.9883V11.1777C462.799 9.79102 462.653 8.88281 462.36 8.45312C462.086 8.00391 461.403 7.7793 460.309 7.7793H458.229V4.55664C460.163 4.55664 461.676 4.41992 462.77 4.14648C463.864 3.85352 464.645 3.64844 465.114 3.53125C465.582 3.39453 466.08 3.32617 466.608 3.32617C467.643 3.32617 468.317 3.62891 468.629 4.23438C468.961 4.82031 469.127 5.76758 469.127 7.07617V41.207C469.127 43.1016 469.205 44.2734 469.362 44.7227C469.694 45.582 470.495 46.0117 471.764 46.0117C472.409 46.0117 472.965 45.9043 473.434 45.6895V48.5312C472.496 49.2344 471.227 49.5859 469.625 49.5859C466.422 49.5859 464.43 47.8477 463.649 44.3711ZM451.842 45.0742C452.78 45.7383 453.913 46.0703 455.241 46.0703C457.819 46.0703 459.743 44.9961 461.012 42.8477C462.301 40.6797 462.946 37.6914 462.946 33.8828C462.946 28.2188 461.452 24.5859 458.463 22.9844C457.506 22.4766 456.452 22.2227 455.299 22.2227C452.995 22.2227 451.188 23.2871 449.879 25.416C448.571 27.5254 447.916 30.3477 447.916 33.8828C447.916 39.5273 449.225 43.2578 451.842 45.0742ZM517.643 45.7773C523.795 45.7773 527.682 42.9453 529.303 37.2812H533.522C533.522 38.8047 533.112 40.3086 532.291 41.793C531.471 43.2578 530.319 44.5664 528.834 45.7188C525.553 48.2969 521.334 49.5859 516.178 49.5859C511.022 49.5859 506.608 47.8672 502.936 44.4297C498.678 40.4648 496.549 34.6641 496.549 27.0273C496.549 20.9336 498.19 15.7969 501.471 11.6172C503.795 8.62891 506.891 6.54883 510.758 5.37695C512.75 4.77148 514.938 4.46875 517.321 4.46875C522.028 4.46875 525.895 5.55273 528.922 7.7207C531.95 9.86914 533.463 12.5742 533.463 15.8359C533.463 18.2773 532.506 19.918 530.592 20.7578C530.026 21.0117 529.411 21.1387 528.746 21.1387C526.696 21.1387 525.319 20.2695 524.616 18.5312C524.401 17.9844 524.293 17.3398 524.293 16.5977C524.293 15.8359 524.508 15.0938 524.938 14.3711C525.368 13.6289 525.934 13.0625 526.637 12.6719C525.055 9.64453 522.223 8.13086 518.141 8.13086C514.059 8.13086 510.739 9.68359 508.18 12.7891C505.621 15.875 504.342 20.5234 504.342 26.7344C504.342 32.9258 505.641 37.6523 508.239 40.9141C510.836 44.1562 513.971 45.7773 517.643 45.7773ZM540.612 34C540.612 31.6562 540.973 29.498 541.696 27.5254C542.438 25.5332 543.463 23.8828 544.772 22.5742C547.35 19.9961 550.778 18.707 555.055 18.707C559.371 18.707 562.848 20.0059 565.485 22.6035C568.141 25.1816 569.469 28.8535 569.469 33.6191C569.469 38.3652 568.248 42.2129 565.807 45.1621C563.366 48.1113 559.782 49.5859 555.055 49.5859C550.328 49.5859 546.735 48.1602 544.274 45.3086C541.832 42.4375 540.612 38.668 540.612 34ZM555.055 46.0703C557.321 46.0703 559.157 45.0352 560.563 42.9648C561.989 40.8945 562.702 37.9844 562.702 34.2344C562.702 28.1992 561.178 24.4297 558.131 22.9258C557.194 22.457 556.168 22.2227 555.055 22.2227C551.442 22.2227 549.088 24.4102 547.995 28.7852C547.604 30.2891 547.409 32.0469 547.409 34.0586C547.409 37.9258 548.112 40.8945 549.518 42.9648C550.944 45.0352 552.789 46.0703 555.055 46.0703ZM577.76 45.1914C577.76 43.9414 578.209 42.8867 579.108 42.0273C580.006 41.1484 581.08 40.709 582.33 40.709C583.58 40.709 584.655 41.1484 585.553 42.0273C586.452 42.8867 586.901 43.9414 586.901 45.1914C586.901 46.4219 586.452 47.4668 585.553 48.3262C584.674 49.166 583.6 49.5859 582.33 49.5859C581.061 49.5859 579.977 49.166 579.078 48.3262C578.2 47.4668 577.76 46.4219 577.76 45.1914Z" fill="white"/>
</svg>
