<svg width="33" height="33" viewBox="0 0 33 33" fill="none" xmlns="http://www.w3.org/2000/svg">
<path d="M12.9007 25.8024C15.5789 25.8024 18.2567 24.976 20.5153 23.3238L29.6098 32.4181C29.9977 32.806 30.5059 33 31.0141 33C31.5223 33 32.0305 32.806 32.4181 32.4185C33.194 31.643 33.194 30.3857 32.4181 29.6102L23.3236 20.5155C27.0145 15.4699 26.5829 8.32951 22.0278 3.77447C16.995 -1.25834 8.80653 -1.25797 3.77439 3.77447C-1.25813 8.8069 -1.25813 16.9956 3.77439 22.0276C6.29046 24.5444 9.5956 25.8024 12.9007 25.8024ZM6.58269 6.5831C8.32473 4.84108 10.6131 3.97026 12.9011 3.97026C15.1891 3.97026 17.4775 4.84108 19.2192 6.5831C22.7032 10.0671 22.7032 15.7361 19.2192 19.2197C15.7347 22.7041 10.066 22.7034 6.58233 19.2197C3.09862 15.7357 3.09862 10.0671 6.58269 6.5831Z" fill="black"/>
</svg>
