<svg width="101" height="16" viewBox="0 0 101 16" fill="none" xmlns="http://www.w3.org/2000/svg">
<path d="M16.9296 6.01472C16.7672 5.51448 16.3469 5.18418 15.8029 5.13024L11.8589 4.77674C11.5913 4.75325 11.3763 4.59869 11.2685 4.3519L9.70173 0.773408C9.48613 0.296082 9.02569 0 8.50087 0C7.96512 0 7.5041 0.298111 7.29854 0.776598L5.73294 4.35249C5.62543 4.59898 5.41013 4.75354 5.14196 4.77703L1.18705 5.13082C0.656615 5.18447 0.237527 5.51274 0.0635707 6.01501C-0.0967994 6.50857 0.0511664 7.0323 0.451944 7.38348L3.43164 9.9473C3.63395 10.1224 3.71576 10.3701 3.65669 10.6262L2.77775 14.4233C2.65844 14.9349 2.85307 15.4441 3.28633 15.7521C3.70808 16.0522 4.27986 16.0768 4.72612 15.8161L8.13731 13.8245C8.36708 13.6856 8.62964 13.6833 8.86769 13.8271L12.2747 15.8159C12.4806 15.9362 12.7127 16 12.9463 16C13.2219 16 13.4856 15.9136 13.7063 15.7523C14.1395 15.4441 14.3344 14.9349 14.2154 14.4245L13.3448 10.6262C13.2854 10.3701 13.3675 10.1227 13.5692 9.94788L16.5477 7.37652C16.955 7.03056 17.1006 6.50712 16.9296 6.01472Z" fill="#FF7E36"/>
<path d="M37.9296 6.01472C37.7672 5.51448 37.3469 5.18418 36.8029 5.13024L32.8589 4.77674C32.5913 4.75325 32.3763 4.59869 32.2685 4.3519L30.7017 0.773408C30.4861 0.296082 30.0257 0 29.5009 0C28.9651 0 28.5041 0.298111 28.2985 0.776598L26.7329 4.35249C26.6254 4.59898 26.4101 4.75354 26.142 4.77703L22.187 5.13082C21.6566 5.18447 21.2375 5.51274 21.0636 6.01501C20.9032 6.50857 21.0512 7.0323 21.4519 7.38348L24.4316 9.9473C24.6339 10.1224 24.7158 10.3701 24.6567 10.6262L23.7778 14.4233C23.6584 14.9349 23.8531 15.4441 24.2863 15.7521C24.7081 16.0522 25.2799 16.0768 25.7261 15.8161L29.1373 13.8245C29.3671 13.6856 29.6296 13.6833 29.8677 13.8271L33.2747 15.8159C33.4806 15.9362 33.7127 16 33.9463 16C34.2219 16 34.4856 15.9136 34.7063 15.7523C35.1395 15.4441 35.3344 14.9349 35.2154 14.4245L34.3448 10.6262C34.2854 10.3701 34.3675 10.1227 34.5692 9.94788L37.5477 7.37652C37.955 7.03056 38.1006 6.50712 37.9296 6.01472Z" fill="#FF7E36"/>
<path d="M58.9296 6.01472C58.7672 5.51448 58.3469 5.18418 57.8029 5.13024L53.8589 4.77674C53.5913 4.75325 53.3763 4.59869 53.2685 4.3519L51.7017 0.773408C51.4861 0.296082 51.0257 0 50.5009 0C49.9651 0 49.5041 0.298111 49.2985 0.776598L47.7329 4.35249C47.6254 4.59898 47.4101 4.75354 47.142 4.77703L43.187 5.13082C42.6566 5.18447 42.2375 5.51274 42.0636 6.01501C41.9032 6.50857 42.0512 7.0323 42.4519 7.38348L45.4316 9.9473C45.6339 10.1224 45.7158 10.3701 45.6567 10.6262L44.7778 14.4233C44.6584 14.9349 44.8531 15.4441 45.2863 15.7521C45.7081 16.0522 46.2799 16.0768 46.7261 15.8161L50.1373 13.8245C50.3671 13.6856 50.6296 13.6833 50.8677 13.8271L54.2747 15.8159C54.4806 15.9362 54.7127 16 54.9463 16C55.2219 16 55.4856 15.9136 55.7063 15.7523C56.1395 15.4441 56.3344 14.9349 56.2154 14.4245L55.3448 10.6262C55.2854 10.3701 55.3675 10.1227 55.5692 9.94788L58.5477 7.37652C58.955 7.03056 59.1006 6.50712 58.9296 6.01472Z" fill="#FF7E36"/>
<path d="M79.9296 6.01472C79.7672 5.51448 79.3469 5.18418 78.8029 5.13024L74.8589 4.77674C74.5913 4.75325 74.3763 4.59869 74.2685 4.3519L72.7017 0.773408C72.4861 0.296082 72.0257 0 71.5009 0C70.9651 0 70.5041 0.298111 70.2985 0.776598L68.7329 4.35249C68.6254 4.59898 68.4101 4.75354 68.142 4.77703L64.187 5.13082C63.6566 5.18447 63.2375 5.51274 63.0636 6.01501C62.9032 6.50857 63.0512 7.0323 63.4519 7.38348L66.4316 9.9473C66.6339 10.1224 66.7158 10.3701 66.6567 10.6262L65.7778 14.4233C65.6584 14.9349 65.8531 15.4441 66.2863 15.7521C66.7081 16.0522 67.2799 16.0768 67.7261 15.8161L71.1373 13.8245C71.3671 13.6856 71.6296 13.6833 71.8677 13.8271L75.2747 15.8159C75.4806 15.9362 75.7127 16 75.9463 16C76.2219 16 76.4856 15.9136 76.7063 15.7523C77.1395 15.4441 77.3344 14.9349 77.2154 14.4245L76.3448 10.6262C76.2854 10.3701 76.3675 10.1227 76.5692 9.94788L79.5477 7.37652C79.955 7.03056 80.1006 6.50712 79.9296 6.01472Z" fill="#FF7E36"/>
<path d="M100.93 6.01472C100.767 5.51448 100.347 5.18418 99.8029 5.13024L95.8589 4.77674C95.5913 4.75325 95.3763 4.59869 95.2685 4.3519L93.7017 0.773408C93.4861 0.296082 93.0257 0 92.5009 0C91.9651 0 91.5041 0.298111 91.2985 0.776598L89.7329 4.35249C89.6254 4.59898 89.4101 4.75354 89.142 4.77703L85.187 5.13082C84.6566 5.18447 84.2375 5.51274 84.0636 6.01501C83.9032 6.50857 84.0512 7.0323 84.4519 7.38348L87.4316 9.9473C87.6339 10.1224 87.7158 10.3701 87.6567 10.6262L86.7778 14.4233C86.6584 14.9349 86.8531 15.4441 87.2863 15.7521C87.7081 16.0522 88.2799 16.0768 88.7261 15.8161L92.1373 13.8245C92.3671 13.6856 92.6296 13.6833 92.8677 13.8271L96.2747 15.8159C96.4806 15.9362 96.7127 16 96.9463 16C97.2219 16 97.4856 15.9136 97.7063 15.7523C98.1395 15.4441 98.3344 14.9349 98.2154 14.4245L97.3448 10.6262C97.2854 10.3701 97.3675 10.1227 97.5692 9.94788L100.548 7.37652C100.955 7.03056 101.101 6.50712 100.93 6.01472Z" fill="#FF7E36"/>
</svg>
